<svg width="25" height="24" viewBox="0 0 25 24" fill="none" xmlns="http://www.w3.org/2000/svg">
<path d="M12.5 0C19.4037 0 25 5.3724 25 12C25 18.6276 19.4037 24 12.5 24C5.59625 24 0 18.6276 0 12C0 5.3724 5.59625 0 12.5 0ZM12.5 2.4C9.84784 2.4 7.3043 3.41143 5.42893 5.21178C3.55357 7.01212 2.5 9.45392 2.5 12C2.5 14.5461 3.55357 16.9879 5.42893 18.7882C7.3043 20.5886 9.84784 21.6 12.5 21.6C15.1522 21.6 17.6957 20.5886 19.5711 18.7882C21.4464 16.9879 22.5 14.5461 22.5 12C22.5 9.45392 21.4464 7.01212 19.5711 5.21178C17.6957 3.41143 15.1522 2.4 12.5 2.4ZM12.5 13.2C14.085 13.2 15.5337 13.7676 16.635 14.7C16.8836 14.9107 17.0349 15.2076 17.0555 15.5253C17.0762 15.8431 16.9645 16.1557 16.745 16.3944C16.5255 16.6331 16.2163 16.7783 15.8853 16.7981C15.5543 16.8179 15.2286 16.7107 14.98 16.5C14.2951 15.9201 13.4132 15.6001 12.5 15.6C11.5487 15.6 10.6812 15.9384 10.02 16.5C9.89688 16.6042 9.75359 16.6842 9.59829 16.7353C9.443 16.7863 9.27874 16.8076 9.1149 16.7977C8.95106 16.7878 8.79085 16.7471 8.64342 16.6778C8.49598 16.6085 8.36421 16.512 8.25562 16.3938C8.14704 16.2756 8.06376 16.138 8.01056 15.989C7.95735 15.8399 7.93525 15.6822 7.94552 15.5249C7.9558 15.3676 7.99824 15.2138 8.07043 15.0723C8.14261 14.9307 8.24314 14.8042 8.36625 14.7C9.50791 13.7334 10.9778 13.2001 12.5 13.2ZM7.925 7.272L8.05875 7.3272L10.5587 8.5272C10.8441 8.664 11.0643 8.90036 11.174 9.1879C11.2838 9.47543 11.2749 9.79237 11.1492 10.0738C11.0234 10.3553 10.7904 10.5799 10.4977 10.7017C10.2051 10.8236 9.87496 10.8334 9.575 10.7292L9.44125 10.6728L6.94125 9.4728C6.66802 9.34073 6.45472 9.11706 6.34175 8.84414C6.22878 8.57122 6.22398 8.26801 6.32827 7.99192C6.43255 7.71584 6.63868 7.48605 6.9076 7.34607C7.17653 7.2061 7.48959 7.16565 7.7875 7.2324L7.925 7.2708V7.272ZM16.9412 7.3272C17.2263 7.19132 17.5545 7.16491 17.8591 7.25337C18.1637 7.34182 18.4217 7.53848 18.5805 7.80324C18.7393 8.068 18.7869 8.38093 18.7136 8.67822C18.6404 8.97552 18.4518 9.2348 18.1862 9.4032L18.0588 9.4728L15.5587 10.6728C15.2737 10.8087 14.9455 10.8351 14.6408 10.7466C14.3362 10.6582 14.0783 10.4615 13.9195 10.1968C13.7607 9.932 13.7131 9.61907 13.7863 9.32178C13.8596 9.02448 14.0482 8.7652 14.3138 8.5968L14.4413 8.5272L16.9412 7.3272Z" fill="#D95C5C"/>
</svg>
