<svg width="30" height="30" viewBox="0 0 30 30" fill="none" xmlns="http://www.w3.org/2000/svg">
<path fill-rule="evenodd" clip-rule="evenodd" d="M15 0C23.2845 0 30 6.7155 30 15C30 23.2845 23.2845 30 15 30C6.7155 30 0 23.2845 0 15C0 6.7155 6.7155 0 15 0ZM15 3C11.8174 3 8.76516 4.26428 6.51472 6.51472C4.26428 8.76516 3 11.8174 3 15C3 18.1826 4.26428 21.2348 6.51472 23.4853C8.76516 25.7357 11.8174 27 15 27C18.1826 27 21.2348 25.7357 23.4853 23.4853C25.7357 21.2348 27 18.1826 27 15C27 11.8174 25.7357 8.76516 23.4853 6.51472C21.2348 4.26428 18.1826 3 15 3ZM15 16.5C16.9005 16.5 18.6405 17.2095 19.962 18.375C20.2604 18.6384 20.4419 19.0095 20.4667 19.4067C20.4914 19.8039 20.3574 20.1946 20.094 20.493C19.8306 20.7914 19.4595 20.9729 19.0623 20.9977C18.6651 21.0224 18.2744 20.8884 17.976 20.625C17.1541 19.9001 16.0959 19.5001 15 19.5C13.8585 19.5 12.8175 19.923 12.024 20.625C11.8763 20.7553 11.7043 20.8552 11.518 20.9191C11.3316 20.9829 11.1345 21.0094 10.9379 20.9971C10.7413 20.9848 10.549 20.9339 10.3721 20.8472C10.1952 20.7606 10.0371 20.64 9.90675 20.4923C9.77645 20.3445 9.67652 20.1726 9.61267 19.9862C9.54882 19.7998 9.5223 19.6027 9.53463 19.4061C9.54695 19.2095 9.59789 19.0173 9.68451 18.8404C9.77114 18.6634 9.89176 18.5053 10.0395 18.375C11.4095 17.1668 13.1733 16.5001 15 16.5Z" fill="#C8476D"/>
</svg>
