<svg width="30" height="30" viewBox="0 0 30 30" fill="none" xmlns="http://www.w3.org/2000/svg">
<path d="M10 19.5002C9.66848 19.5002 9.35054 19.6319 9.11612 19.8663C8.8817 20.1007 8.75 20.4187 8.75 20.7502C8.75 21.0817 8.8817 21.3997 9.11612 21.6341C9.35054 21.8685 9.66848 22.0002 10 22.0002H20C20.3315 22.0002 20.6495 21.8685 20.8839 21.6341C21.1183 21.3997 21.25 21.0817 21.25 20.7502C21.25 20.4187 21.1183 20.1007 20.8839 19.8663C20.6495 19.6319 20.3315 19.5002 20 19.5002H10ZM15 0.000205278C16.9698 0.000205249 18.9204 0.388192 20.7403 1.14201C22.5601 1.89583 24.2137 3.00072 25.6066 4.3936C26.9995 5.78648 28.1044 7.44007 28.8582 9.25995C29.612 11.0798 30 13.0304 30 15.0002C30 16.97 29.612 18.9206 28.8582 20.7405C28.1044 22.5603 26.9995 24.2139 25.6066 25.6068C24.2137 26.9997 22.5601 28.1046 20.7403 28.8584C18.9204 29.6122 16.9698 30.0002 15 30.0002C11.0218 30.0002 7.20644 28.4199 4.3934 25.6068C1.58035 22.7938 0 18.9785 0 15.0002C0 11.022 1.58035 7.20665 4.3934 4.3936C7.20644 1.58056 11.0218 0.000205338 15 0.000205278ZM15 2.50021C11.6848 2.50021 8.50537 3.81717 6.16117 6.16137C3.81696 8.50558 2.5 11.685 2.5 15.0002C2.5 18.3154 3.81696 21.4948 6.16117 23.839C8.50537 26.1832 11.6848 27.5002 15 27.5002C18.3152 27.5002 21.4946 26.1832 23.8388 23.839C26.183 21.4948 27.5 18.3154 27.5 15.0002C27.5 11.685 26.183 8.50558 23.8388 6.16137C21.4946 3.81717 18.3152 2.50021 15 2.50021Z" fill="#606060"/>
</svg>
