<svg width="43" height="57" viewBox="0 0 43 57" fill="none" xmlns="http://www.w3.org/2000/svg">
<path d="M21.5 0C15.7999 0.00700382 10.3352 2.36849 6.30464 6.56645C2.27407 10.7644 0.00673805 16.4561 1.34945e-05 22.3929C-0.0052273 27.2442 1.51617 31.9636 4.33128 35.8286C4.33128 35.8286 4.91765 36.6327 5.01342 36.7487L21.5 57L37.9944 36.7385C38.0804 36.6306 38.6687 35.8286 38.6687 35.8286L38.6707 35.8225C41.4839 31.9589 43.0045 27.2418 43 22.3929C42.9933 16.4561 40.7259 10.7644 36.6954 6.56645C32.6648 2.36849 27.2001 0.00700382 21.5 0ZM21.5 30.5357C19.9537 30.5357 18.4421 30.0581 17.1565 29.1634C15.8708 28.2686 14.8687 26.9969 14.2769 25.509C13.6852 24.0211 13.5304 22.3838 13.832 20.8043C14.1337 19.2247 14.8783 17.7738 15.9717 16.635C17.0651 15.4962 18.4582 14.7207 19.9748 14.4065C21.4913 14.0923 23.0633 14.2535 24.4919 14.8698C25.9205 15.4862 27.1415 16.5298 28.0006 17.8689C28.8596 19.208 29.3182 20.7824 29.3182 22.3929C29.3156 24.5517 28.4911 26.6213 27.0254 28.1478C25.5598 29.6742 23.5727 30.533 21.5 30.5357Z" fill="#FD5FAE"/>
</svg>
