<svg width="30" height="30" viewBox="0 0 30 30" fill="none" xmlns="http://www.w3.org/2000/svg">
<path d="M18.54 18.345C17.5373 19.1534 16.288 19.5943 15 19.5943C13.712 19.5943 12.4627 19.1534 11.46 18.345C11.1537 18.0904 10.7588 17.9679 10.3621 18.0045C9.96548 18.041 9.59961 18.2337 9.34501 18.54C9.0904 18.8463 8.9679 19.2412 9.00447 19.6379C9.04104 20.0345 9.23368 20.4004 9.54 20.655C11.072 21.9339 13.0043 22.6344 15 22.6344C16.9957 22.6344 18.928 21.9339 20.46 20.655C20.7663 20.4004 20.959 20.0345 20.9955 19.6379C21.0321 19.2412 20.9096 18.8463 20.655 18.54C20.5289 18.3883 20.3742 18.263 20.1997 18.1711C20.0252 18.0792 19.8343 18.0226 19.6379 18.0045C19.2413 17.9679 18.8463 18.0904 18.54 18.345ZM15 0C12.0333 0 9.13319 0.879735 6.66645 2.52796C4.19971 4.17618 2.27713 6.51885 1.14181 9.25975C0.00649929 12.0006 -0.290551 15.0166 0.288227 17.9264C0.867006 20.8361 2.29562 23.5088 4.3934 25.6066C6.49119 27.7044 9.16394 29.133 12.0737 29.7118C14.9834 30.2906 17.9994 29.9935 20.7403 28.8582C23.4811 27.7229 25.8238 25.8003 27.472 23.3335C29.1203 20.8668 30 17.9667 30 15C30 13.0302 29.612 11.0796 28.8582 9.25975C28.1044 7.43986 26.9995 5.78628 25.6066 4.3934C24.2137 3.00052 22.5601 1.89563 20.7403 1.14181C18.9204 0.387986 16.9698 0 15 0ZM15 27C12.6266 27 10.3066 26.2962 8.33316 24.9776C6.35977 23.6591 4.8217 21.7849 3.91345 19.5922C3.0052 17.3995 2.76756 14.9867 3.23058 12.6589C3.69361 10.3311 4.83649 8.19295 6.51472 6.51472C8.19295 4.83649 10.3311 3.6936 12.6589 3.23058C14.9867 2.76755 17.3995 3.00519 19.5922 3.91345C21.7849 4.8217 23.6591 6.35977 24.9776 8.33316C26.2962 10.3065 27 12.6266 27 15C27 18.1826 25.7357 21.2348 23.4853 23.4853C21.2348 25.7357 18.1826 27 15 27Z" fill="#5D8364"/>
</svg>
