<svg width="26" height="26" viewBox="0 0 26 26" fill="none" xmlns="http://www.w3.org/2000/svg">
<path d="M9.25 10.5H9.2625M16.75 10.5H16.7625M9.875 17.0625C10.2823 16.6468 10.7686 16.3165 11.3052 16.091C11.8418 15.8655 12.418 15.7494 13 15.7494C13.582 15.7494 14.1582 15.8655 14.6948 16.091C15.2314 16.3165 15.7177 16.6468 16.125 17.0625M19.9575 20.0075C19.6165 20.3583 19.386 20.8015 19.2944 21.282C19.2029 21.7626 19.2543 22.2595 19.4424 22.7111C19.6305 23.1627 19.947 23.5492 20.3526 23.8227C20.7582 24.0962 21.2352 24.2447 21.7244 24.2498C22.2136 24.2548 22.6935 24.1163 23.1047 23.8512C23.5159 23.5862 23.8403 23.2063 24.0377 22.7587C24.2351 22.3111 24.2969 21.8154 24.2153 21.333C24.1337 20.8506 23.9124 20.4028 23.5787 20.045L21.75 18L19.9575 20.0075Z" stroke="#2652A5" stroke-width="2" stroke-linecap="round" stroke-linejoin="round"/>
<path d="M24.0813 14.8963C24.191 14.2701 24.2474 13.6357 24.25 13C24.25 10.775 23.5902 8.59989 22.354 6.74984C21.1179 4.89979 19.3609 3.45785 17.3052 2.60636C15.2495 1.75487 12.9875 1.53209 10.8052 1.96617C8.62295 2.40025 6.61839 3.47171 5.04505 5.04505C3.47171 6.61839 2.40025 8.62295 1.96617 10.8052C1.53209 12.9875 1.75487 15.2495 2.60636 17.3052C3.45785 19.3609 4.89979 21.1179 6.74984 22.354C8.59989 23.5902 10.775 24.25 13 24.25C13.8625 24.25 14.7 24.155 15.5 23.9725" stroke="#2652A5" stroke-width="2" stroke-linecap="round" stroke-linejoin="round"/>
</svg>
